<svg xmlns="http://www.w3.org/2000/svg" width="32" height="30" viewBox="0 0 32 30">
  <g id="Group_503" data-name="Group 503" transform="translate(-1216 -13)">
    <g id="Icon_ionic-ios-notifications-outline" data-name="Icon ionic-ios-notifications-outline" transform="translate(1209.225 9.07)">
      <path id="Path_315" data-name="Path 315" d="M20.022,28.336a.855.855,0,0,0-.838.673,1.654,1.654,0,0,1-.33.719,1.247,1.247,0,0,1-1.063.389,1.268,1.268,0,0,1-1.063-.389,1.654,1.654,0,0,1-.33-.719.855.855,0,0,0-.838-.673h0a.861.861,0,0,0-.838,1.049,2.949,2.949,0,0,0,3.069,2.449,2.943,2.943,0,0,0,3.069-2.449.864.864,0,0,0-.838-1.049Z" transform="translate(0.961 2.096)" fill="#fff"/>
      <path id="Path_316" data-name="Path 316" d="M30.472,26.731c-1.156-1.562-3.431-2.478-3.431-9.473,0-7.18-3.093-10.065-5.976-10.758-.27-.069-.465-.162-.465-.454V5.823A1.866,1.866,0,0,0,18.8,3.93h-.045a1.866,1.866,0,0,0-1.8,1.893v.223c0,.285-.2.385-.465.454-2.89.7-5.976,3.578-5.976,10.758,0,6.995-2.275,7.9-3.431,9.473a1.53,1.53,0,0,0,1.194,2.447H29.3A1.532,1.532,0,0,0,30.472,26.731Zm-2.928.446H10.037a.338.338,0,0,1-.248-.562,9.356,9.356,0,0,0,1.577-2.57,17.83,17.83,0,0,0,1.074-6.787,12.033,12.033,0,0,1,1.569-6.679,4.817,4.817,0,0,1,2.905-2.124,2.617,2.617,0,0,0,1.4-.808.584.584,0,0,1,.893-.015,2.7,2.7,0,0,0,1.411.823,4.817,4.817,0,0,1,2.905,2.124,12.033,12.033,0,0,1,1.569,6.679,17.83,17.83,0,0,0,1.074,6.787,9.46,9.46,0,0,0,1.614,2.609A.319.319,0,0,1,27.544,27.178Z" transform="translate(0 0)" fill="#fff"/>
    </g>
    <path id="Path_317" data-name="Path 317" d="M9.5,0A9.5,9.5,0,1,1,0,9.5,9.5,9.5,0,0,1,9.5,0Z" transform="translate(1229 13)" fill="#fff"/>
    <text id="_12" data-name="12" transform="translate(1232 17)" fill="#00b0b5" font-size="10" font-family="Roboto-Medium, Roboto" font-weight="500"><tspan x="0" y="9">12</tspan></text>
  </g>
</svg>
